<?xml version="1.0" standalone="no"?>
<svg xmlns:xlink="http://www.w3.org/1999/xlink" id="wave" style="transform:rotate(0deg); transition: 0.3s" viewBox="0 0 1440 100" version="1.1" xmlns="http://www.w3.org/2000/svg"><defs><linearGradient id="sw-gradient-0" x1="0" x2="0" y1="1" y2="0"><stop stop-color="rgba(255, 255, 255, 1)" offset="0%"/><stop stop-color="rgba(255, 2.249, 229.671, 0.02)" offset="100%"/></linearGradient></defs><path style="transform:translate(0, 0px); opacity:1" fill="url(#sw-gradient-0)" d="M0,40L11.4,48.3C22.9,57,46,73,69,75C91.4,77,114,63,137,51.7C160,40,183,30,206,26.7C228.6,23,251,27,274,31.7C297.1,37,320,43,343,45C365.7,47,389,43,411,45C434.3,47,457,53,480,55C502.9,57,526,53,549,45C571.4,37,594,23,617,26.7C640,30,663,50,686,48.3C708.6,47,731,23,754,18.3C777.1,13,800,27,823,33.3C845.7,40,869,40,891,36.7C914.3,33,937,27,960,33.3C982.9,40,1006,60,1029,66.7C1051.4,73,1074,67,1097,53.3C1120,40,1143,20,1166,20C1188.6,20,1211,40,1234,51.7C1257.1,63,1280,67,1303,71.7C1325.7,77,1349,83,1371,73.3C1394.3,63,1417,37,1440,21.7C1462.9,7,1486,3,1509,10C1531.4,17,1554,33,1577,48.3C1600,63,1623,77,1634,83.3L1645.7,90L1645.7,100L1634.3,100C1622.9,100,1600,100,1577,100C1554.3,100,1531,100,1509,100C1485.7,100,1463,100,1440,100C1417.1,100,1394,100,1371,100C1348.6,100,1326,100,1303,100C1280,100,1257,100,1234,100C1211.4,100,1189,100,1166,100C1142.9,100,1120,100,1097,100C1074.3,100,1051,100,1029,100C1005.7,100,983,100,960,100C937.1,100,914,100,891,100C868.6,100,846,100,823,100C800,100,777,100,754,100C731.4,100,709,100,686,100C662.9,100,640,100,617,100C594.3,100,571,100,549,100C525.7,100,503,100,480,100C457.1,100,434,100,411,100C388.6,100,366,100,343,100C320,100,297,100,274,100C251.4,100,229,100,206,100C182.9,100,160,100,137,100C114.3,100,91,100,69,100C45.7,100,23,100,11,100L0,100Z"/></svg>